<svg width="836" height="105" viewBox="0 0 836 105" fill="none" xmlns="http://www.w3.org/2000/svg">
<path d="M162.134 20.2612H185.551C189.157 20.2612 192.422 20.7598 195.346 21.7542C198.269 22.75 200.771 24.1964 202.856 26.0931C204.939 27.9919 206.541 30.2779 207.661 32.9516C208.78 35.6268 209.34 38.6133 209.34 41.9097V42.9362C209.34 46.2954 208.78 49.3276 207.661 52.0339C206.541 54.7397 204.923 57.0262 202.809 58.8919C200.694 60.758 198.175 62.2048 195.253 63.2313C192.329 64.2578 189.096 64.771 185.551 64.771H176.688V85.5794H162.134V20.2612ZM183.872 53.2929C185.551 53.2929 187.074 53.0599 188.442 52.5934C189.81 52.1263 190.976 51.4433 191.941 50.5404C192.904 49.639 193.635 48.5658 194.134 47.3208C194.63 46.0769 194.88 44.6778 194.88 43.122V42.1889C194.88 40.6341 194.63 39.2817 194.134 38.1297C193.635 36.9797 192.921 35.9999 191.988 35.1909C191.054 34.3823 189.919 33.7762 188.583 33.3714C187.245 32.9672 185.767 32.7648 184.151 32.7648H176.315V53.2929H183.872Z" fill="#00004F"/>
<path d="M218.294 37.057H229.209C229.52 38.0529 229.816 39.1567 230.096 40.37C230.376 41.5828 230.577 42.7187 230.702 43.7759C232.443 41.6616 234.558 40.0124 237.046 38.8303C239.532 37.6491 242.301 37.057 245.349 37.057H246.655V50.1206C246.156 49.9342 245.55 49.8102 244.835 49.7474C244.12 49.6862 243.39 49.654 242.643 49.654C241.025 49.654 239.549 49.887 238.212 50.3536C236.874 50.8201 235.754 51.4895 234.854 52.3603C233.951 53.2316 233.282 54.3194 232.848 55.6261C232.412 56.9323 232.195 58.3947 232.195 60.0117V85.5789H218.294V37.057Z" fill="#00004F"/>
<path d="M265.733 84.7854C262.716 83.6354 260.12 82.0184 257.943 79.9338C255.765 77.8502 254.086 75.3307 252.905 72.3758C251.723 69.4219 251.133 66.2334 251.133 62.811V59.8255C251.133 56.3422 251.723 53.1388 252.905 50.2145C254.086 47.2907 255.765 44.7883 257.943 42.7032C260.119 40.6196 262.716 39.0025 265.733 37.8505C268.749 36.7005 272.061 36.1245 275.669 36.1245H276.695C280.301 36.1245 283.613 36.7 286.631 37.8505C289.647 39.0025 292.243 40.6191 294.421 42.7032C296.597 44.7883 298.292 47.2907 299.505 50.2145C300.717 53.1388 301.324 56.3422 301.324 59.8255V62.811C301.324 66.2334 300.717 69.4219 299.505 72.3758C298.292 75.3312 296.597 77.8502 294.421 79.9338C292.243 82.0189 289.647 83.6354 286.631 84.7854C283.613 85.9355 280.302 86.5115 276.695 86.5115H275.669C272.061 86.5115 268.749 85.936 265.733 84.7854ZM276.601 76.1542C278.155 76.1542 279.571 75.8439 280.846 75.2212C282.12 74.6 283.209 73.6669 284.111 72.422C285.013 71.178 285.698 69.6845 286.164 67.9429C286.631 66.2018 286.864 64.2422 286.864 62.0637V60.0108C286.864 57.8965 286.631 55.9987 286.164 54.3189C285.698 52.6396 285.013 51.2254 284.111 50.0729C283.209 48.9228 282.106 48.0365 280.8 47.4143C279.494 46.793 278.094 46.4807 276.602 46.4807H275.762C274.207 46.4807 272.807 46.793 271.564 47.4143C270.319 48.037 269.232 48.9228 268.299 50.0729C267.366 51.2249 266.666 52.6396 266.2 54.3189C265.733 55.9987 265.5 57.8965 265.5 60.0108V62.0637C265.5 64.2422 265.733 66.2013 266.2 67.9429C266.666 69.6845 267.349 71.178 268.252 72.422C269.153 73.6669 270.242 74.6 271.518 75.2212C272.791 75.8439 274.207 76.1542 275.762 76.1542H276.601Z" fill="#00004F"/>
<path d="M319.609 84.7854C316.996 83.6354 314.757 82.0183 312.891 79.9337C311.026 77.8501 309.58 75.3467 308.553 72.4224C307.527 69.4987 307.014 66.2957 307.014 62.811V59.8254C307.014 56.28 307.527 53.0604 308.553 50.1678C309.58 47.2751 311.025 44.7883 312.891 42.7032C314.757 40.6196 316.996 39.0025 319.609 37.8505C322.22 36.7005 325.143 36.1244 328.378 36.1244H329.124C331.86 36.1244 334.378 36.5443 336.68 37.3839C338.98 38.2241 341.002 39.4223 342.744 40.9761V18.395H356.644V85.5789H345.636C345.387 84.8949 345.154 84.0552 344.936 83.0599C344.718 82.0651 344.547 81.0998 344.423 80.1673V80.2602C342.495 82.2524 340.239 83.7916 337.66 84.8794C335.078 85.9671 332.233 86.512 329.124 86.512H328.378C325.143 86.5115 322.22 85.936 319.609 84.7854ZM332.576 76.1542C334.129 76.1542 335.528 75.8439 336.773 75.2212C338.016 74.6 339.089 73.6669 339.992 72.422C340.893 71.178 341.578 69.6845 342.044 67.9429C342.511 66.2018 342.744 64.2422 342.744 62.0637V60.0107C342.744 57.8965 342.511 55.9987 342.044 54.3189C341.578 52.6396 340.893 51.2254 339.992 50.0729C339.09 48.9228 338.001 48.0365 336.727 47.4142C335.451 46.793 334.068 46.4807 332.576 46.4807H331.642C330.149 46.4807 328.765 46.793 327.491 47.4142C326.216 48.037 325.127 48.9228 324.226 50.0729C323.324 51.2249 322.623 52.6396 322.127 54.3189C321.628 55.9987 321.381 57.8965 321.381 60.0107V62.0637C321.381 64.3035 321.628 66.2791 322.127 67.9896C322.623 69.7011 323.324 71.178 324.226 72.422C325.126 73.6669 326.216 74.6 327.491 75.2212C328.765 75.8439 330.15 76.1542 331.642 76.1542H332.576Z" fill="#00004F"/>
<path d="M371.803 81.7999C368.972 78.5964 367.559 74.04 367.559 68.1297V37.057H381.458V65.0508C381.458 68.3487 382.065 70.8215 383.277 72.4686C384.49 74.1173 386.434 74.9414 389.108 74.9414H389.388C390.942 74.9414 392.326 74.6773 393.539 74.1485C394.752 73.6207 395.792 72.8111 396.664 71.7224C397.534 70.6346 398.203 69.3751 398.67 67.9434C399.136 66.5131 399.369 64.8961 399.369 63.0907V37.057H413.27V85.5789H402.261C402.012 84.6458 401.732 83.4953 401.422 82.1263C401.11 80.7588 400.924 79.546 400.862 78.4874C398.871 80.9763 396.446 82.9519 393.586 84.4123C390.724 85.8737 387.615 86.6054 384.256 86.6054H383.79C378.628 86.6049 374.633 85.0044 371.803 81.7999Z" fill="#00004F"/>
<path d="M436.08 84.692C433.188 83.4792 430.7 81.7999 428.617 79.6535C426.532 77.5072 424.916 74.9882 423.765 72.0955C422.614 69.2029 422.04 66.0155 422.04 62.5313V59.9184C422.04 56.4979 422.614 53.3396 423.765 50.447C424.915 47.5544 426.548 45.0509 428.663 42.9357C430.777 40.8215 433.265 39.1562 436.127 37.9434C438.987 36.7306 442.065 36.124 445.362 36.124H446.202C450.494 36.124 454.365 37.0425 457.817 38.8765C461.269 40.7125 464.207 43.3721 466.633 46.8548L456.838 53.8529C455.406 51.3655 453.883 49.5767 452.267 48.4869C450.648 47.3997 448.815 46.8543 446.762 46.8543H446.109C444.616 46.8543 443.264 47.1345 442.051 47.6935C440.839 48.2534 439.827 49.1257 439.02 50.3064C438.21 51.4891 437.573 52.9193 437.107 54.5991C436.64 56.279 436.407 58.238 436.407 60.4773V62.1571C436.407 64.2724 436.64 66.1697 437.107 67.849C437.573 69.5288 438.257 70.9445 439.159 72.095C440.061 73.2466 441.133 74.1169 442.378 74.7079C443.622 75.2995 444.99 75.5938 446.483 75.5938H447.323C449.312 75.5938 451.131 75.0193 452.78 73.8678C454.428 72.7178 455.936 70.9284 457.305 68.5028L467.007 75.874C464.519 79.42 461.596 82.0791 458.238 83.8524C454.88 85.6251 451.023 86.511 446.669 86.511H445.83C442.221 86.5115 438.972 85.9053 436.08 84.692Z" fill="#00004F"/>
<path d="M485.57 85.2987C483.765 84.6775 482.211 83.7123 480.906 82.4061C479.6 81.0999 478.588 79.4522 477.874 77.4605C477.158 75.4703 476.801 73.107 476.801 70.3685V47.7874H470.457V38.5501C471.391 38.2392 472.431 37.959 473.583 37.7099C474.732 37.4623 475.805 37.275 476.802 37.15V25.8591L490.608 24.1798V37.0565H503.389V47.7874H490.515V67.7556C490.515 70.2445 490.981 72.0016 491.914 73.0276C492.847 74.0541 494.214 74.5673 496.019 74.5673C496.454 74.5673 497.045 74.5206 497.791 74.4277C498.537 74.3343 499.252 74.257 499.937 74.1947C500.621 74.1335 501.29 74.04 501.942 73.9145C502.596 73.7905 503.17 73.6669 503.668 73.5409V84.0854C502.05 84.7704 500.076 85.2982 497.744 85.6718C495.412 86.045 493.374 86.2313 491.634 86.2313C489.395 86.2318 487.373 85.9199 485.57 85.2987Z" fill="#00004F"/>
<path d="M536.785 20.2612H551.339V46.1085H574.101V20.2612H588.655V85.5789H574.101V58.799H551.339V85.5789H536.785V20.2612Z" fill="#00004F"/>
<path d="M612.77 84.8321C609.753 83.7122 607.187 82.0791 605.073 79.9332C602.958 77.7869 601.326 75.2367 600.175 72.2813C599.024 69.3274 598.45 66.015 598.45 62.3434V60.5707C598.45 56.9639 599.01 53.651 600.129 50.6328C601.248 47.6161 602.881 45.0343 605.027 42.888C607.172 40.7416 609.706 39.0783 612.63 37.8957C615.553 36.715 618.787 36.1229 622.332 36.1229H623.358C626.654 36.1229 629.67 36.6683 632.407 37.7561C635.143 38.8448 637.492 40.369 639.45 42.328C641.41 44.2881 642.949 46.6363 644.069 49.3728C645.188 52.1107 645.747 55.0646 645.747 58.2375V65.0492H611.883V65.1421C612.07 66.822 612.49 68.2844 613.142 69.5283C613.795 70.7732 614.619 71.8464 615.615 72.7473C616.609 73.6498 617.791 74.3192 619.16 74.7541C620.527 75.1895 622.052 75.407 623.731 75.407H624.571C627.306 75.407 629.732 74.847 631.847 73.7276C633.961 72.6077 635.766 71.2704 637.258 69.7151L644.068 78.393C642.948 79.5747 641.642 80.679 640.15 81.7055C638.657 82.732 637.039 83.6033 635.298 84.3184C633.557 85.0345 631.753 85.5779 629.888 85.9515C628.022 86.3241 626.124 86.511 624.197 86.511H622.797C619.129 86.5115 615.786 85.952 612.77 84.8321ZM632.407 56.6521V56.2789C632.407 54.7241 632.189 53.325 631.754 52.0801C631.319 50.8362 630.682 49.7936 629.842 48.9539C629.003 48.1138 628.023 47.4604 626.904 46.9939C625.784 46.5274 624.572 46.2943 623.266 46.2943H622.332C620.964 46.2943 619.72 46.5274 618.6 46.9939C617.481 47.4604 616.502 48.1459 615.662 49.0469C614.822 49.9493 614.106 51.0391 613.516 52.3131C612.924 53.5887 612.505 55.035 612.257 56.6521H632.407Z" fill="#00004F"/>
<path d="M654.05 37.057H664.965C665.276 38.0529 665.571 39.1567 665.851 40.37C666.131 41.5828 666.332 42.7187 666.458 43.7759C668.198 41.6616 670.313 40.0124 672.801 38.8303C675.288 37.6491 678.057 37.057 681.104 37.057H682.41V50.1206C681.912 49.9342 681.306 49.8102 680.591 49.7474C679.876 49.6862 679.145 49.654 678.399 49.654C676.781 49.654 675.304 49.887 673.968 50.3536C672.63 50.8201 671.509 51.4895 670.609 52.3603C669.707 53.2316 669.038 54.3194 668.603 55.6261C668.168 56.9323 667.95 58.3947 667.95 60.0117V85.5789H654.049L654.05 37.057Z" fill="#00004F"/>
<path d="M701.489 84.7854C698.472 83.6354 695.876 82.0184 693.699 79.9338C691.521 77.8502 689.843 75.3307 688.662 72.3758C687.479 69.4219 686.889 66.2334 686.889 62.811V59.8255C686.889 56.3422 687.479 53.1388 688.662 50.2145C689.843 47.2907 691.521 44.7883 693.699 42.7032C695.876 40.6196 698.472 39.0025 701.489 37.8505C704.505 36.7005 707.817 36.1245 711.425 36.1245H712.451C716.057 36.1245 719.369 36.7 722.387 37.8505C725.403 39.0025 727.999 40.6191 730.177 42.7032C732.353 44.7883 734.048 47.2907 735.261 50.2145C736.474 53.1388 737.08 56.3422 737.08 59.8255V62.811C737.08 66.2334 736.474 69.4219 735.261 72.3758C734.048 75.3312 732.353 77.8502 730.177 79.9338C727.999 82.0189 725.403 83.6354 722.387 84.7854C719.369 85.9355 716.058 86.5115 712.451 86.5115H711.425C707.817 86.5115 704.505 85.936 701.489 84.7854ZM712.357 76.1542C713.911 76.1542 715.327 75.8439 716.603 75.2212C717.876 74.6 718.965 73.6669 719.868 72.422C720.769 71.178 721.454 69.6845 721.92 67.9429C722.387 66.2018 722.62 64.2422 722.62 62.0637V60.0108C722.62 57.8965 722.387 55.9987 721.92 54.3189C721.454 52.6396 720.769 51.2254 719.868 50.0729C718.965 48.9228 717.862 48.0365 716.556 47.4143C715.25 46.793 713.85 46.4807 712.358 46.4807H711.518C709.963 46.4807 708.564 46.793 707.32 47.4143C706.075 48.037 704.988 48.9228 704.055 50.0729C703.122 51.2249 702.422 52.6396 701.956 54.3189C701.489 55.9987 701.256 57.8965 701.256 60.0108V62.0637C701.256 64.2422 701.489 66.2013 701.956 67.9429C702.422 69.6845 703.106 71.178 704.008 72.422C704.909 73.6669 705.998 74.6 707.274 75.2212C708.548 75.8439 709.963 76.1542 711.518 76.1542H712.357Z" fill="#00004F"/>
<path d="M757.09 84.8321C754.073 83.7122 751.507 82.0791 749.393 79.9332C747.278 77.7869 745.646 75.2367 744.495 72.2813C743.344 69.3274 742.77 66.015 742.77 62.3434V60.5707C742.77 56.9639 743.329 53.651 744.449 50.6328C745.568 47.6161 747.201 45.0343 749.347 42.888C751.492 40.7416 754.026 39.0783 756.949 37.8957C759.873 36.715 763.107 36.1229 766.652 36.1229H767.678C770.974 36.1229 773.99 36.6683 776.727 37.7561C779.463 38.8448 781.812 40.369 783.77 42.328C785.73 44.2881 787.269 46.6363 788.388 49.3728C789.508 52.1107 790.067 55.0646 790.067 58.2375V65.0492H756.203V65.1421C756.391 66.822 756.81 68.2844 757.463 69.5283C758.116 70.7732 758.939 71.8464 759.935 72.7473C760.929 73.6498 762.111 74.3192 763.48 74.7541C764.847 75.1895 766.372 75.407 768.051 75.407H768.891C771.627 75.407 774.052 74.847 776.168 73.7276C778.281 72.6077 780.086 71.2704 781.578 69.7151L788.388 78.393C787.269 79.5747 785.963 80.679 784.47 81.7055C782.977 82.732 781.359 83.6033 779.619 84.3184C777.877 85.0345 776.074 85.5779 774.208 85.9515C772.342 86.3241 770.444 86.511 768.517 86.511H767.118C763.448 86.5115 760.106 85.952 757.09 84.8321ZM776.728 56.6521V56.2789C776.728 54.7241 776.509 53.325 776.075 52.0801C775.639 50.8362 775.002 49.7936 774.162 48.9539C773.323 48.1138 772.343 47.4604 771.224 46.9939C770.105 46.5274 768.892 46.2943 767.586 46.2943H766.653C765.284 46.2943 764.04 46.5274 762.921 46.9939C761.802 47.4604 760.822 48.1459 759.983 49.0469C759.143 49.9493 758.427 51.0391 757.837 52.3131C757.245 53.5887 756.825 55.035 756.577 56.6521H776.728Z" fill="#00004F"/>
<path d="M804.808 84.9255C801.013 83.8056 797.531 82.1258 794.359 79.8865L800.889 69.9958C801.822 70.8049 802.925 71.5677 804.201 72.2818C805.475 72.9979 806.797 73.6041 808.166 74.1013C809.533 74.5999 810.932 74.9881 812.364 75.2679C813.794 75.5476 815.193 75.6877 816.562 75.6877C817.618 75.6877 818.535 75.5943 819.314 75.4075C820.091 75.2211 820.759 74.9409 821.319 74.5673C821.879 74.1947 822.283 73.7598 822.532 73.2611C822.78 72.7644 822.905 72.1111 822.905 71.302C822.905 70.3077 822.592 69.5293 821.972 68.9694C821.349 68.4094 820.416 67.9122 819.173 67.4763C817.928 67.0414 816.389 66.5895 814.555 66.1234C812.72 65.6569 810.527 65.0191 807.979 64.2106C806.485 63.7134 805.023 63.1228 803.594 62.4378C802.163 61.7538 800.903 60.9142 799.815 59.9188C798.727 58.924 797.84 57.6956 797.156 56.2327C796.471 54.7714 796.13 52.983 796.13 50.8668C796.13 48.6275 796.564 46.5906 797.436 44.7551C798.306 42.9211 799.519 41.3347 801.074 39.9963C802.628 38.6595 804.526 37.6636 806.765 37.0108C809.004 36.3574 811.553 36.0305 814.415 36.0305C818.021 36.0305 821.473 36.5603 824.77 37.6169C828.066 38.6756 831.082 40.1992 833.819 42.1894L827.195 51.6131C825.453 50.1828 823.385 49.0167 820.992 48.1143C818.596 47.2128 816.248 46.7614 813.948 46.7614C813.076 46.7614 812.284 46.8548 811.57 47.0416C810.854 47.2279 810.278 47.4775 809.843 47.7879C809.408 48.1002 809.081 48.504 808.864 49.0007C808.645 49.4993 808.537 50.0593 808.537 50.6805C808.537 51.6136 808.817 52.3764 809.376 52.9665C809.936 53.5586 810.729 54.0397 811.755 54.4133C812.782 54.7864 813.963 55.1289 815.3 55.4398C816.637 55.7511 818.02 56.0926 819.451 56.4663C821.378 56.9649 823.323 57.5394 825.282 58.1923C827.242 58.8456 828.997 59.732 830.553 60.8519C832.107 61.9718 833.398 63.3875 834.424 65.0979C835.451 66.8094 835.964 68.9392 835.964 71.4894C835.964 73.7291 835.512 75.7977 834.611 77.6945C833.709 79.5932 832.434 81.2098 830.786 82.5471C829.138 83.885 827.162 84.8959 824.863 85.5794C822.561 86.2634 819.979 86.6059 817.119 86.6059C812.705 86.6049 808.6 86.0449 804.808 84.9255Z" fill="#00004F"/>
<path d="M114.265 64.8348L108.764 33.3664L105.851 16.7012C104.224 7.3905 96.14 0.595825 86.6892 0.595825H66.5898L72.3161 33.3664L77.8179 64.8353L82.1082 89.3841C83.624 98.0579 91.1543 104.389 99.9578 104.389H121.177L114.265 64.8348ZM84.7678 51.4162L100.125 42.1985C102.697 46.4144 101.268 51.9159 97.0537 54.4887C92.8398 57.0594 87.3394 55.6307 84.7678 51.4162Z" fill="#00004F"/>
<path d="M34.5198 0.614929C25.0706 0.614929 16.9865 7.4091 15.3598 16.7203L12.4492 33.3664L7.32595 62.688L0.0336914 104.405H21.2517C30.0568 104.405 37.5855 98.077 39.1028 89.4016L43.3961 64.8354L48.8949 33.3664L54.6197 0.614929H34.5198ZM37.5529 51.4163C34.9807 55.6307 29.4804 57.0594 25.2674 54.4882C21.0524 51.9154 19.624 46.4139 22.1961 42.198L37.5529 51.4163Z" fill="#00004F"/>
<path d="M108.764 33.3665H12.4492L7.32596 62.688L6.97299 64.8349H114.265L108.764 33.3665ZM25.2669 54.4882C21.0519 51.9155 19.6235 46.4139 22.1957 42.198L37.5529 51.4158C34.9807 55.6307 29.4804 57.0594 25.2669 54.4882ZM97.0533 54.4882C92.8398 57.0594 87.3395 55.6307 84.7678 51.4163L100.125 42.1985C102.697 46.4139 101.268 51.9155 97.0533 54.4882Z" fill="#56CFE1"/>
</svg>
